<svg xmlns="http://www.w3.org/2000/svg" version="1.0" width="140" height="140" viewBox="0 0 500.000000 500.000000" preserveAspectRatio="xMidYMid meet">

	<g transform="translate(0.000000,500.000000) scale(0.100000,-0.100000)" fill="#000000" stroke="none">
	<path d="M890 2575 l0 -905 1640 0 1640 0 0 905 0 905 -1640 0 -1640 0 0 -905z m3220 0 l0 -845 -1575 0 -1575 0 0 845 0 845 1575 0 1575 0 0 -845z"/>
	<path d="M3211 2976 c-18 -21 -9 -66 14 -82 47 -31 105 50 59 83 -24 17 -59 17 -73 -1z"/>
	<path d="M1220 2550 l0 -280 50 0 50 0 0 188 0 187 83 -185 83 -185 34 0 34 0 80 179 81 180 3 -182 2 -182 50 0 50 0 0 280 0 280 -53 0 -52 0 -94 -210 c-51 -115 -97 -210 -101 -210 -4 0 -49 95 -100 210 l-94 210 -53 0 -53 0 0 -280z"/>
	<path d="M1940 2550 l0 -280 143 0 c115 0 149 3 177 18 98 49 109 196 18 252 -29 18 -30 18 -9 29 56 31 69 155 20 207 -45 48 -68 54 -214 54 l-135 0 0 -280z m243 188 c31 -16 46 -39 46 -68 0 -54 -43 -80 -133 -80 l-66 0 0 80 0 80 66 0 c36 0 75 -5 87 -12z m41 -253 c33 -30 34 -68 1 -100 -22 -23 -32 -25 -110 -25 l-85 0 0 75 0 75 84 0 c74 0 86 -3 110 -25z"/>
	<path d="M2450 2550 l0 -280 45 0 45 0 0 120 0 120 101 0 100 0 -3 43 -3 42 -97 3 -98 3 0 74 0 75 115 0 115 0 0 40 0 40 -160 0 -160 0 0 -280z"/>
	<path d="M2840 2550 l0 -280 145 0 145 0 0 45 0 45 -95 0 -95 0 0 235 0 235 -50 0 -50 0 0 -280z"/>
	<path d="M3200 2550 l0 -280 50 0 50 0 0 280 0 280 -50 0 -50 0 0 -280z"/>
	<path d="M3386 2803 c9 -16 50 -77 90 -137 l73 -109 -88 -131 c-48 -72 -91 -137 -95 -143 -5 -10 6 -13 47 -13 l54 0 63 100 c34 55 66 100 70 100 4 0 36 -45 70 -100 l63 -100 54 0 c41 0 52 3 47 13 -4 6 -47 71 -95 143 l-88 131 73 109 c40 60 81 121 90 137 l18 27 -53 0 -54 0 -60 -95 c-33 -52 -62 -95 -65 -95 -3 0 -32 43 -64 95 l-59 95 -55 0 -54 0 18 -27z"/>
	</g>
	</svg>
