<svg width="22" height="22" viewBox="0 0 23 22" fill="none" xmlns="http://www.w3.org/2000/svg">
	<path d="M22.0681 19.2314L17.8589 15.3344C19.217 13.7279 19.9539 11.7439 19.9511 9.70158C19.9511 7.8827 19.3703 6.10466 18.282 4.59231C17.1938 3.07996 15.647 1.90123 13.8373 1.20517C12.0276 0.509112 10.0363 0.326991 8.11512 0.681838C6.19396 1.03669 4.42926 1.91256 3.04418 3.19871C1.6591 4.48486 0.715849 6.12351 0.333707 7.90745C-0.0484363 9.69138 0.147693 11.5405 0.897293 13.2209C1.64689 14.9013 2.9163 16.3376 4.54498 17.3482C6.17366 18.3587 8.08847 18.898 10.0473 18.898C12.2467 18.9006 14.3833 18.2163 16.1134 16.9553L20.3102 20.8638C20.4252 20.9715 20.5622 21.057 20.713 21.1154C20.8639 21.1738 21.0257 21.2038 21.1891 21.2038C21.3525 21.2038 21.5144 21.1738 21.6652 21.1154C21.8161 21.057 21.953 20.9715 22.0681 20.8638C22.1841 20.7569 22.2762 20.6298 22.3391 20.4897C22.4019 20.3496 22.4343 20.1993 22.4343 20.0476C22.4343 19.8958 22.4019 19.7456 22.3391 19.6055C22.2762 19.4654 22.1841 19.3383 22.0681 19.2314ZM2.61937 9.70158C2.61937 8.33742 3.05501 7.00389 3.8712 5.86963C4.68739 4.73537 5.84747 3.85132 7.20474 3.32927C8.56201 2.80723 10.0555 2.67064 11.4964 2.93677C12.9373 3.20291 14.2608 3.85982 15.2996 4.82443C16.3384 5.78904 17.0458 7.01803 17.3324 8.35598C17.6191 9.69393 17.472 11.0808 16.9098 12.3411C16.3476 13.6014 15.3955 14.6786 14.174 15.4365C12.9525 16.1944 11.5164 16.5989 10.0473 16.5989C8.07727 16.5989 6.18796 15.8722 4.79495 14.5787C3.40195 13.2852 2.61937 11.5309 2.61937 9.70158Z" fill="black"/>
	</svg>
	