<svg width="13" height="13" viewBox="0 0 13 13" fill="none" xmlns="http://www.w3.org/2000/svg">
<path d="M12.5798 4.57767L8.68265 3.98457L6.94052 0.28611C6.89294 0.184848 6.81466 0.102875 6.71796 0.0530477C6.47544 -0.0723237 6.18074 0.0321525 6.05948 0.28611L4.31735 3.98457L0.420205 4.57767C0.312761 4.59374 0.214527 4.64679 0.139316 4.72715C0.04839 4.82502 -0.00171418 4.95668 1.2684e-05 5.09321C0.00173955 5.22974 0.0551562 5.35996 0.148525 5.45527L2.96816 8.33399L2.30201 12.3989C2.28639 12.4935 2.29638 12.5907 2.33085 12.6796C2.36533 12.7686 2.4229 12.8456 2.49705 12.902C2.5712 12.9584 2.65895 12.9919 2.75036 12.9987C2.84177 13.0055 2.93317 12.9854 3.01421 12.9406L6.5 11.0214L9.98579 12.9406C10.081 12.9936 10.1915 13.0113 10.2974 12.992C10.5645 12.9438 10.744 12.6786 10.698 12.3989L10.0318 8.33399L12.8515 5.45527C12.9282 5.37651 12.9789 5.27364 12.9942 5.16113C13.0357 4.87985 12.8484 4.61946 12.5798 4.57767Z" fill="#A97B06"/>
</svg>
